<svg width="165" height="94" viewBox="0 0 165 94" fill="none" xmlns="http://www.w3.org/2000/svg">
<path d="M47.5391 88.7188V81.7656C47.5391 62.5653 63.1916 47 82.5 47M82.5 47C101.808 47 117.461 62.5653 117.461 81.7656V88.7188M82.5 47C94.0854 47 103.477 37.6613 103.477 26.1406C103.477 14.6203 94.0854 5.28125 82.5 5.28125C70.9146 5.28125 61.5234 14.6203 61.5234 26.1406C61.5234 37.6613 70.9146 47 82.5 47ZM5.58594 88.7188V81.7656C5.58594 70.245 14.9775 60.9062 26.5625 60.9062M26.5625 60.9062C34.2859 60.9062 40.5469 54.6804 40.5469 47C40.5469 39.3196 34.2859 33.0938 26.5625 33.0938C18.8391 33.0938 12.5781 39.3196 12.5781 47C12.5781 54.6804 18.8391 60.9062 26.5625 60.9062ZM159.414 88.7188V81.7656C159.414 70.245 150.023 60.9062 138.438 60.9062M138.438 60.9062C146.161 60.9062 152.422 54.6804 152.422 47C152.422 39.3196 146.161 33.0938 138.438 33.0938C130.714 33.0938 124.453 39.3196 124.453 47C124.453 54.6804 130.714 60.9062 138.438 60.9062Z" stroke="white" stroke-width="10" stroke-linecap="round" stroke-linejoin="round"/>
</svg>

