<svg width="35" height="27" viewBox="0 0 35 27" fill="none" xmlns="http://www.w3.org/2000/svg">
<path d="M33.3834 20.6231C31.9199 24.2378 22.418 24.1478 20.85 20.6231C19.282 17.0985 25.1583 11.6147 25.1583 11.6147C25.1583 11.6147 22.025 8.87327 22.025 6.9147C22.025 4.95614 23.1985 2.21488 26.725 1.823C30.2516 1.43111 32.2117 3.99247 32.2084 6.9147C32.2059 9.12067 29.075 11.6147 29.075 11.6147C29.075 11.6147 34.8469 17.0086 33.3834 20.6231Z" stroke="#EEECDB"/>
<path d="M13.7994 20.6231C12.3359 24.2378 2.83401 24.1478 1.266 20.6231C-0.302013 17.0985 5.57437 11.6147 5.57437 11.6147C5.57437 11.6147 2.44101 8.87327 2.44101 6.9147C2.44101 4.95614 3.61449 2.21488 7.14105 1.823C10.6676 1.43111 12.6277 3.99247 12.6244 6.9147C12.6219 9.12067 9.49107 11.6147 9.49107 11.6147C9.49107 11.6147 15.263 17.0086 13.7994 20.6231Z" stroke="#EEECDB"/>
<path d="M24.9983 22.9479C23.2396 27.1588 11.8211 27.054 9.93684 22.9479C8.05256 18.8418 15.1142 12.4534 15.1142 12.4534C15.1142 12.4534 11.3488 9.25968 11.3488 6.97802C11.3488 4.69636 12.759 1.50289 16.9969 1.04636C21.2348 0.589828 23.5902 3.57372 23.5863 6.97802C23.5833 9.5479 19.8209 12.4534 19.8209 12.4534C19.8209 12.4534 26.757 18.737 24.9983 22.9479Z" fill="#EEECDB" stroke="#100035"/>
</svg>
