<svg width="35" height="27" viewBox="0 0 35 27" fill="none" xmlns="http://www.w3.org/2000/svg">
<path d="M33.3834 20.6212C31.9199 24.2358 22.418 24.1459 20.85 20.6212C19.282 17.0965 25.1583 11.6128 25.1583 11.6128C25.1583 11.6128 22.025 8.87131 22.025 6.91275C22.025 4.95419 23.1985 2.21293 26.725 1.82104C30.2516 1.42916 32.2117 3.99052 32.2084 6.91275C32.2059 9.11872 29.075 11.6128 29.075 11.6128C29.075 11.6128 34.8469 17.0066 33.3834 20.6212Z" fill="#FFFEED" stroke="black"/>
<path d="M13.7994 20.6212C12.3359 24.2358 2.83401 24.1459 1.266 20.6212C-0.302013 17.0965 5.57437 11.6128 5.57437 11.6128C5.57437 11.6128 2.44101 8.87131 2.44101 6.91275C2.44101 4.95419 3.61449 2.21293 7.14105 1.82104C10.6676 1.42916 12.6277 3.99052 12.6244 6.91275C12.6219 9.11872 9.49107 11.6128 9.49107 11.6128C9.49107 11.6128 15.263 17.0066 13.7994 20.6212Z" fill="#FFFEED" stroke="black"/>
<path d="M24.9983 22.9479C23.2396 27.1588 11.8211 27.054 9.93684 22.9479C8.05256 18.8418 15.1142 12.4534 15.1142 12.4534C15.1142 12.4534 11.3488 9.25968 11.3488 6.97802C11.3488 4.69636 12.759 1.50289 16.9969 1.04636C21.2348 0.589828 23.5902 3.57372 23.5863 6.97802C23.5833 9.5479 19.8209 12.4534 19.8209 12.4534C19.8209 12.4534 26.757 18.737 24.9983 22.9479Z" fill="#FFFEED" stroke="#100035"/>
</svg>
