<svg width="123" height="121" viewBox="0 0 123 121" fill="none" xmlns="http://www.w3.org/2000/svg">
<g clip-path="url(#clip0_1_2)">
<path fill-rule="evenodd" clip-rule="evenodd" d="M68.925 69.906V120.595H53.953V69.906C49.035 67.244 45.694 62.039 45.694 56.052C45.694 47.358 52.744 40.308 61.439 40.308C70.133 40.308 77.184 47.358 77.184 56.052C77.184 62.039 73.843 67.244 68.925 69.906ZM39.32 11.165C42.236 9.727 43.431 6.196 41.993 3.283C40.555 0.368997 37.027 -0.828003 34.113 0.608997C22.213 6.479 12.958 16.19 7.11001 27.625C2.79001 36.07 0.327007 45.467 0.0300069 54.95C-0.268993 64.513 1.61701 74.173 6.00301 83.064C11.404 94.017 20.561 103.759 34.042 110.656C36.931 112.133 40.471 110.986 41.947 108.097C43.424 105.208 42.278 101.669 39.389 100.193C28.352 94.548 20.903 86.668 16.556 77.859C13.05 70.748 11.542 63.002 11.782 55.32C12.025 47.563 14.038 39.878 17.572 32.972C22.304 23.721 29.76 15.879 39.32 11.165ZM88.765 0.607997C85.851 -0.830003 82.322 0.367997 80.884 3.282C79.446 6.196 80.642 9.727 83.558 11.164C93.119 15.879 100.575 23.72 105.305 32.972C108.838 39.877 110.852 47.562 111.094 55.32C111.334 63.002 109.826 70.748 106.321 77.859C101.974 86.668 94.525 94.548 83.488 100.193C80.599 101.67 79.454 105.209 80.93 108.097C82.406 110.986 85.946 112.132 88.835 110.656C102.315 103.76 111.473 94.017 116.874 83.064C121.26 74.173 123.146 64.513 122.847 54.95C122.55 45.467 120.087 36.07 115.768 27.625C109.919 16.19 100.665 6.479 88.765 0.607997ZM82.791 26.505C80.596 24.924 77.535 25.423 75.954 27.618C74.374 29.813 74.872 32.874 77.067 34.455C77.952 35.092 78.82 35.807 79.671 36.589C84.642 41.172 87.59 47.283 88.209 53.749C88.835 60.273 87.098 67.186 82.691 73.301C81.943 74.34 81.081 75.393 80.106 76.451C78.271 78.443 78.398 81.549 80.393 83.383C82.387 85.217 85.492 85.088 87.326 83.096C88.506 81.817 89.612 80.455 90.641 79.024C96.503 70.885 98.807 61.624 97.963 52.827C97.115 43.974 93.092 35.619 86.315 29.37C85.249 28.387 84.074 27.431 82.791 26.505ZM45.81 34.458C48.005 32.877 48.504 29.816 46.923 27.621C45.342 25.426 42.281 24.927 40.086 26.507C38.802 27.433 37.628 28.389 36.562 29.371C29.784 35.621 25.761 43.975 24.913 52.828C24.069 61.624 26.373 70.888 32.236 79.027C33.267 80.457 34.372 81.818 35.551 83.097C37.385 85.089 40.49 85.218 42.483 83.384C44.479 81.55 44.606 78.445 42.771 76.452C41.796 75.393 40.934 74.341 40.186 73.302C35.78 67.187 34.042 60.275 34.668 53.751C35.287 47.286 38.235 41.174 43.206 36.591C44.058 35.81 44.926 35.095 45.81 34.458Z" fill="white"/>
</g>
<defs>
<clipPath id="clip0_1_2">
<rect width="122.877" height="120.596" fill="white"/>
</clipPath>
</defs>
</svg>