<svg width="113" height="113" viewBox="0 0 113 113" fill="none" xmlns="http://www.w3.org/2000/svg">
<path d="M111.123 101.537L85.5742 75.9889C91.725 67.8002 95.0456 57.8335 95.0341 47.5923C95.0341 21.4327 73.7517 0.150002 47.5923 0.150002C21.4329 0.150002 0.150238 21.4327 0.150238 47.5923C0.150238 73.7514 21.4329 95.0343 47.5923 95.0343C57.8338 95.0454 67.8004 91.725 75.9892 85.5739L101.537 111.123C102.831 112.279 104.518 112.896 106.252 112.847C107.986 112.799 109.635 112.088 110.862 110.862C112.088 109.635 112.799 107.986 112.847 106.251C112.896 104.517 112.279 102.831 111.123 101.537ZM13.7049 47.5923C13.7049 40.8899 15.6922 34.3381 19.4161 28.7654C23.1397 23.1929 28.4321 18.8495 34.6241 16.2843C40.8162 13.7195 47.6297 13.0484 54.2034 14.3561C60.7766 15.6635 66.8148 18.8907 71.5542 23.6301C76.2934 28.3696 79.5209 34.4075 80.8283 40.9812C82.1357 47.5544 81.4646 54.3682 78.8998 60.5602C76.3349 66.7523 71.9915 72.0446 66.4187 75.7683C60.8463 79.4921 54.2946 81.4792 47.5923 81.4792C38.6082 81.4687 29.9951 77.8948 23.6421 71.542C17.2896 65.1892 13.7157 56.5762 13.7049 47.5923Z" fill="white"/>
</svg>
